<svg xmlns="http://www.w3.org/2000/svg" fill="none" viewBox="0 0 128 128">
  <path fill="#fff" d="M34.0339 97.3509c-2.2826 1.901-6.0561.4907-7.2744-1.7516-1.7564-3.2283-.2608-7.0042 3.444-7.9452 3.3231-.8415 6.4329 1.7967 6.7482 5.1174.0158.1565.1351.2963.3579.4196 7.3289 4.02 15.3926 8.8199 23.9114 13.4699.0695.038.1407.041.2133.008 1.4491-.637 2.857-.723 4.2239-.256 3.1311 1.071 4.9397 4.752 2.9605 7.693-2.5102 3.734-8.1894 3.423-9.7277-1.028-.1683-.493-.1825-1.15-.2702-1.723-.006-.038-.0196-.074-.04-.105-.0204-.032-.0471-.059-.0785-.08-.6526-.427-1.3116-.833-1.9768-1.219-7.3969-4.269-14.8301-8.475-22.2997-12.6167-.0679-.0379-.1319-.0323-.1919.0166Zm68.1111-3.9496c-.13 1.3953-.821 2.6808-1.922 3.5737-1.1014.8929-2.5221 1.3202-3.9499 1.1877-.707-.0656-1.3944-.2666-2.023-.5916-.6287-.3249-1.1862-.7675-1.6408-1.3024-.4546-.5349-.7973-1.1516-1.0087-1.815-.2113-.6633-.2871-1.3603-.223-2.0512.1294-1.3952.8208-2.6807 1.9219-3.5736 1.1011-.893 2.5218-1.3202 3.9496-1.1877.707.0655 1.3944.2666 2.0231.5915.6286.325 1.1858.7676 1.6408 1.3024.454.5349.797 1.1517 1.009 1.815.211.6634.287 1.3604.223 2.0512Z"/>
  <path fill="#fff" d="M57.8742 117.517c3.335 1.949 5.9589 3.705 9.7182 1.491 10.5414-6.2 21.1485-12.291 31.821-18.27 1.2676-.711 2.6306-1.509 4.0916-2.3939 3.327-2.0132 6.687-3.9719 10.078-5.876.998-.5594 1.602-1.9247.882-2.932-.375-.5262-1.192-.9363-1.802-1.2871-3.367-1.9294-6.774-3.8628-10.22-5.8001-.025-.0141-.046-.0344-.061-.059-.015-.0246-.023-.0525-.023-.0812-.001-.0286.006-.057.019-.0822.014-.0253.033-.0467.058-.062l4.74-2.97c.082-.0505.165-.0513.249-.0024 3.165 1.8204 6.322 3.6369 9.469 5.4493 4.798 2.7614 5.087 8.8625.133 11.7495C99.34 106.7 83.8265 115.67 70.4865 123.301c-1.9673 1.125-3.3887 1.803-4.2641 2.033-2.1538.563-4.2847.322-6.3927-.722-3.1572-1.567-6.926-3.928-9.8841-5.635-12.3997-7.147-24.8098-14.275-37.23-21.3843-1.8931-1.0841-3.12567-1.9334-3.69769-2.5481-2.11667-2.2778-2.26837-6.6747.22043-9.0521.39031-.3745 1.10536-.8501 2.14506-1.4269 3.083-1.7098 6.1051-3.5215 9.0664-5.4351.0711-.0458.1446-.0474.2204-.0047l5.153 2.9699c.0099.0056.0181.0137.0238.0235s.0087.0209.0087.0322c0 .0114-.003.0225-.0087.0323-.0057.0098-.0139.0179-.0238.0234-3.4811 1.9626-6.9623 3.956-10.4435 5.9803-.9607.5578-1.4964.8944-1.607 1.0097-.7798.8035-.6826 2.5244.3792 3.1691 3.4773 2.1072 7.2033 4.1006 10.5644 6.0466 11.036 6.3922 22.1479 12.6672 33.1579 19.1042ZM36.691 65.9447c0 1.4208-.5644 2.7833-1.569 3.7879s-2.3672 1.569-3.7879 1.569-2.7832-.5644-3.7878-1.569-1.569-2.3671-1.569-3.7879c0-1.4207.5644-2.7832 1.569-3.7878s2.3671-1.569 3.7878-1.569c1.4207 0 2.7833.5644 3.7879 1.569s1.569 2.3671 1.569 3.7878Z"/>
  <path fill="#fff" d="M91.3166 65.5204c.2631-3.847 4.5248-5.9613 7.7555-4.2642 3.3679 1.7706 4.2569 6.4306 1.0359 8.8602-1.8323 1.3818-4.3685 1.5999-6.3027.1754-.0505-.0364-.1034-.0395-.1588-.0095L69.5384 83.8664c-.0501.0284-.091.0702-.1179.1206-.0269.0505-.0386.1073-.0338.1638.2323 2.8886-.9955 4.8536-3.6834 5.8949-.8186.3176-1.6948.3832-2.6287.1968-2.9534-.5879-4.7335-3.245-4.1978-6.222.6021-3.3516 3.9892-5.236 7.1536-4.0675.0742.0285.1453.023.2133-.0166l24.952-14.224c.0343-.0197.0632-.0475.0843-.081.0211-.0334.0336-.0716.0366-.111Z"/>
  <path fill="#fff" d="m21.3766 52.5455 4.8827 2.8016c.0139.008.0255.0195.0336.0333.0081.0138.0125.0295.0127.0455.0003.016-.0036.0318-.0113.0458-.0077.014-.019.0258-.0326.0342-3.9283 2.304-7.8464 4.5763-11.7542 6.817-.979.5617-1.4198 1.2231-1.1757 2.33.1612.7348.8106 1.1401 1.434 1.4838 3.2126 1.7682 6.3966 3.5854 9.5523 5.4516 3.8327 2.2637 7.7532 4.4088 11.5622 6.6724 6.0111 3.5744 12.0561 7.0895 18.1351 10.5454 1.5217.8659 3.0363 1.7445 4.5438 2.6357 2.0653 1.2199 3.3271 1.9002 3.7854 2.0409 1.6655.5119 3.3547.2694 5.0676-.7277 20.868-12.1501 36.1848-21.0497 45.9508-26.6989.922-.5333 1.637-1.3843 1.282-2.4888-.247-.7727-1.086-1.2681-1.773-1.6758-3.51-2.0811-7.09-4.148-10.74-6.2007-.158-.0885-.176-.1999-.054-.3342.079-.0869.208-.1896.388-.3081 1.437-.9387 2.894-1.8457 4.371-2.7211.07-.0411.14-.0403.211.0024 3.373 2.0834 7.151 4.1053 10.342 6.1058 2.967 1.8607 4.107 5.3355 2.562 8.4975-1.14 2.3324-3.162 3.1572-5.319 4.3898-8.111 4.6315-16.1898 9.3191-24.2361 14.0629-6.9228 4.08-13.8741 8.1127-20.8538 12.0979-3.2876 1.8773-6.0892 2.7943-9.5949.8035-12.5894-7.1551-25.1053-14.4358-37.5477-21.8422-3.6929-2.1972-7.5541-4.2025-11.3086-6.3357-1.62366-.9221-2.98183-2.3798-3.50566-4.1646-.63761-2.1712.04266-4.6482 1.5952-6.2813.45035-.474 1.30366-1.0698 2.55986-1.7872 3.0846-1.7587 6.1256-3.5356 9.1233-5.3307.0759-.046.1635-.0703.2536-.0703.0901 0 .1794.0243.2584.0703Z"/>
  <path fill="#fff" fill-rule="evenodd" d="M70.9072 5.00768c-3.1035-1.81006-5.6026-3.26761-9.1102-2.35908-.828.21333-2.1941.8778-4.0982 1.99341-2.6548 1.55385-5.3347 3.06613-8.0141 4.5782-3.0427 1.71709-6.0852 3.43399-9.0899 5.21109-8.8996 5.262-18.7576 10.9547-29.574 17.0779-3.52699 1.9958-4.97524 6.5704-2.13089 9.7893.54516.6178 1.55569 1.3479 3.03159 2.1901 2.0843 1.1899 5.2786 2.9763 9.5831 5.3592 2.8933 1.6008 9.7663 5.567 20.6191 11.8989 2.405 1.4032 8.1372 4.6623 17.1964 9.7774 2.3529 1.3273 4.7113 1.6789 7.0753 1.0548.8691-.2292 2.2873-.9118 4.2547-2.048 2.2059-1.2743 4.4115-2.5495 6.6172-3.8248l.0003-.0001.002-.0012c13.1746-7.6173 26.3514-15.2361 39.6314-22.6689.969-.5404 1.629-.9955 1.98-1.3653 1.604-1.6805 2.066-4.2618 1.379-6.4235-.493-1.5438-1.517-2.7685-3.072-3.6739-7.676-4.4672-15.378-8.8909-23.1053-13.2712-7.5944-4.3045-15.1667-8.64684-22.7168-13.02712-.1545-.08975-.3073-.1789-.4587-.2672ZM60.043 64.9966c1.7256 1.0097 3.4393 1.5644 5.3853 1.1472.7222-.1549 1.9191-.7253 3.591-1.7114 2.4372-1.4353 4.9198-2.8673 7.4153-4.3068 3.7808-2.1809 7.5914-4.3789 11.3194-6.632 1.6697-1.0097 3.8387-2.2152 6.1364-3.4923 2.2657-1.2593 4.6566-2.5882 6.8176-3.8675 4.317-2.5567 8.676-5.0416 13.079-7.4545.359-.1975.599-.4274.72-.6898.643-1.4079-.32-2.1996-1.403-2.8182-9.617-5.4912-19.2449-10.961-28.8841-16.4095-5.409-3.0577-10.7942-6.1541-16.1558-9.28915-2.8491-1.66394-4.961-1.77061-7.8291-.22044-3.9524 2.13999-7.8557 4.46219-11.6675 6.72999-2.5043 1.4899-4.9691 2.9563-7.3825 4.3321-8.5678 4.8828-17.1348 9.7664-25.701 14.6508-.0619.0353-.1256.0713-.1905.1079-.6527.3684-1.4269.8054-1.7697 1.409-.73 1.2847.2418 2.0195 1.3179 2.6168 11.8056 6.5578 19.2056 10.7327 22.2001 12.5246 4.5938 2.7483 9.2335 5.4189 13.873 8.0894 3.0471 1.754 6.0942 3.5079 9.1282 5.2838Z" clip-rule="evenodd"/>
  <path fill="#fff" d="M69.2871 18.5651c-.0078.0229-.0076.0477.0006.0702s.0239.0412.0445.053l7.3763 4.3021c.0368.021.0785.032.1209.032.0424 0 .084-.011.1209-.032 2.9439-1.6877 6.7245-.0735 7.6702 3.0126.8035 2.6216-.3366 5.2858-2.8467 6.4069-3.6479 1.626-7.5968-.9315-7.6726-4.9326-.0008-.0364-.0094-.0722-.0254-.1049-.0159-.0328-.0388-.0617-.0671-.0847-.3524-.2876-.7269-.5491-1.1235-.7845-2.3276-1.389-4.6702-2.7504-7.0279-4.084-.0695-.0396-.1422-.0443-.2181-.0143-.3816.1541-.7158.3342-1.1258.3508-6.6842.2939-7.995-9.4171-1.4838-10.8108 1.4774-.3177 2.8704.0308 4.1788 1.0453 1.6023 1.242 2.7969 3.5127 2.0787 5.5749ZM53.8329 28.7644c-.0254.0562-.029.1198-.0102.1784.0189.0587.0588.1083.1121.1392l8.1798 4.7904c.0632.0363.1296.0442.1991.0237 2.078-.5894 3.8873-.1525 5.428 1.3108 2.6903 2.5575 2.0953 6.5799-1.0998 8.3765-2.0811 1.1694-4.118.945-6.1106-.6731-1.4712-1.1962-2.0464-2.8214-1.7256-4.8757.0058-.0376.0019-.0761-.0113-.1118-.0133-.0357-.0355-.0674-.0645-.092-.3303-.2876-.7901-.6021-1.3795-.9434-2.4667-1.4317-4.9318-2.8649-7.3953-4.2997-.0711-.0411-.1446-.0482-.2205-.0213-1.2088.4361-2.3402.2915-3.3942-.4338-.0434-.0301-.0949-.0464-.1478-.0469-.0528-.0004-.1046.0151-.1485.0445-2.8396 1.9342-6.0276 3.5104-9.0403 5.1696-.0711.038-.1058.0972-.1043.1778l.0119 1.4625c.0008.0705.0202.1397.0564.2004.0362.0608.0879.111.1498.1456l8.8459 4.9895c.0674.0381.1428.0597.2199.063.077.0033.1536-.0118.2234-.0441 4.7405-2.2162 9.5878 3.3137 6.6581 7.7603-.5657.8581-1.3455 1.5012-2.3395 1.9295-2.8822 1.2372-5.9304-.0806-7.1464-2.9629-.3034-.7206-.192-1.4198-.2299-2.2138-.0047-.0949-.0482-.166-.1304-.2134l-9.0592-5.217c-.0758-.0442-.1509-.0426-.2252.0048-1.3605.8691-2.7535 1.0674-4.1788.5949-6.4448-2.138-3.8683-11.4153 2.6879-10.2799.2244.0395.4496.079.6755.1185.0838.0142.1628 0 .2371-.0427l9.7418-5.755c.0533-.0313.098-.0752.1302-.1277.0323-.0525.051-.112.0547-.1733.1723-2.7891 1.4396-4.5218 3.802-5.1981 3.8327-1.0974 7.2696 1.9437 6.843 5.8333-.019.1738-.0506.3113-.0948.4124Zm39.752 14.7124-8.6705 4.9373c-.0344.0189-.0623.0476-.0805.0826-.0181.035-.0256.0747-.0214.1141.4337 4.5581-4.8947 7.4451-8.5117 4.7595-3.0174-2.2399-2.842-6.779.384-8.6989 1.5944-.9465 3.3247-1.0658 5.1909-.3579.0312.0119.0646.0167.0978.0143.0332-.0025.0653-.0122.0942-.0285l9.1137-5.2976c.0309-.0185.0571-.0438.0764-.0738.0194-.03.0314-.064.035-.0993.422-4.084 4.6766-6.4756 8.2984-4.2688 2.3918 1.4577 3.3608 4.7927 1.7258 7.2388-1.4366 2.1475-4.8048 3.1975-7.0779 1.8654-.1359-.079-.2773-.1469-.4243-.2038-.0369-.0148-.0768-.021-.1166-.0181-.0398.0028-.0786.0147-.1133.0347ZM69.3914 57.9592c0 1.4138-.5616 2.7697-1.5614 3.7694-.9997.9997-2.3556 1.5613-3.7694 1.5613-.7 0-1.3932-.1378-2.04-.4057-.6467-.2679-1.2344-.6606-1.7294-1.1556-.495-.495-.8877-1.0827-1.1556-1.7294-.2679-.6468-.4058-1.34-.4058-2.04 0-.7001.1379-1.3933.4058-2.04.2679-.6468.6606-1.2344 1.1556-1.7294.495-.4951 1.0827-.8877 1.7294-1.1556.6468-.2679 1.34-.4058 2.04-.4058 1.4138 0 2.7697.5616 3.7694 1.5614.9998.9997 1.5614 2.3556 1.5614 3.7694Z"/>
  <path stroke="#fff" d="M34.0339 97.3509c-2.2826 1.901-6.0561.4907-7.2744-1.7516-1.7564-3.2283-.2608-7.0042 3.444-7.9452 3.3231-.8415 6.4329 1.7967 6.7482 5.1174.0158.1565.1351.2963.3579.4196 7.3289 4.02 15.3926 8.8199 23.9114 13.4699.0695.038.1407.041.2133.008 1.4491-.637 2.857-.723 4.2239-.256 3.1311 1.071 4.9397 4.752 2.9605 7.693-2.5102 3.734-8.1894 3.423-9.7277-1.028-.1683-.493-.1825-1.15-.2702-1.723-.006-.038-.0196-.074-.04-.105-.0204-.032-.0471-.059-.0785-.08-.6526-.427-1.3116-.833-1.9768-1.219-7.3969-4.269-14.8301-8.475-22.2997-12.6167-.0679-.0379-.1319-.0323-.1919.0166Zm68.1111-3.9496c-.13 1.3953-.821 2.6808-1.922 3.5737-1.1014.8929-2.5221 1.3202-3.9499 1.1877-.707-.0656-1.3944-.2666-2.023-.5916-.6287-.3249-1.1862-.7675-1.6408-1.3024-.4546-.5349-.7973-1.1516-1.0087-1.815-.2113-.6633-.2871-1.3603-.223-2.0512.1294-1.3952.8208-2.6807 1.9219-3.5736 1.1011-.893 2.5218-1.3202 3.9496-1.1877.707.0655 1.3944.2666 2.0231.5915.6286.325 1.1858.7676 1.6408 1.3024.454.5349.797 1.1517 1.009 1.815.211.6634.287 1.3604.223 2.0512Z"/>
  <path stroke="#fff" d="M57.8742 117.517c3.335 1.949 5.9589 3.705 9.7182 1.491 10.5414-6.2 21.1485-12.291 31.821-18.27 1.2676-.711 2.6306-1.509 4.0916-2.3939 3.327-2.0132 6.687-3.9719 10.078-5.876.998-.5594 1.602-1.9247.882-2.932-.375-.5262-1.192-.9363-1.802-1.2871-3.367-1.9294-6.774-3.8628-10.22-5.8001-.025-.0141-.046-.0344-.061-.059-.015-.0246-.023-.0525-.023-.0812-.001-.0286.006-.057.019-.0822.014-.0253.033-.0467.058-.062l4.74-2.97c.082-.0505.165-.0513.249-.0024 3.165 1.8204 6.322 3.6369 9.469 5.4493 4.798 2.7614 5.087 8.8625.133 11.7495C99.34 106.7 83.8265 115.67 70.4865 123.301c-1.9673 1.125-3.3887 1.803-4.2641 2.033-2.1538.563-4.2847.322-6.3927-.722-3.1572-1.567-6.926-3.928-9.8841-5.635-12.3997-7.147-24.8098-14.275-37.23-21.3843-1.8931-1.0841-3.12567-1.9334-3.69769-2.5481-2.11667-2.2778-2.26837-6.6747.22043-9.0521.39031-.3745 1.10536-.8501 2.14506-1.4269 3.083-1.7098 6.1051-3.5215 9.0664-5.4351.0711-.0458.1446-.0474.2204-.0047l5.153 2.9699c.0099.0056.0181.0137.0238.0235s.0087.0209.0087.0322c0 .0114-.003.0225-.0087.0323-.0057.0098-.0139.0179-.0238.0234-3.4811 1.9626-6.9623 3.956-10.4435 5.9803-.9607.5578-1.4964.8944-1.607 1.0097-.7798.8035-.6826 2.5244.3792 3.1691 3.4773 2.1072 7.2033 4.1006 10.5644 6.0466 11.036 6.3922 22.1479 12.6672 33.1579 19.1042ZM36.691 65.9447c0 1.4208-.5644 2.7833-1.569 3.7879s-2.3672 1.569-3.7879 1.569-2.7832-.5644-3.7878-1.569-1.569-2.3671-1.569-3.7879c0-1.4207.5644-2.7832 1.569-3.7878s2.3671-1.569 3.7878-1.569c1.4207 0 2.7833.5644 3.7879 1.569s1.569 2.3671 1.569 3.7878Z"/>
  <path stroke="#fff" d="M91.3166 65.5204c.2631-3.847 4.5248-5.9613 7.7555-4.2642 3.3679 1.7706 4.2569 6.4306 1.0359 8.8602-1.8323 1.3818-4.3685 1.5999-6.3027.1754-.0505-.0364-.1034-.0395-.1588-.0095L69.5384 83.8664c-.0501.0284-.091.0702-.1179.1206-.0269.0505-.0386.1073-.0338.1638.2323 2.8886-.9955 4.8536-3.6834 5.8949-.8186.3176-1.6948.3832-2.6287.1968-2.9534-.5879-4.7335-3.245-4.1978-6.222.6021-3.3516 3.9892-5.236 7.1536-4.0675.0742.0285.1453.023.2133-.0166l24.952-14.224c.0343-.0197.0632-.0475.0843-.081.0211-.0334.0336-.0716.0366-.111Z"/>
  <path stroke="#fff" d="m21.3766 52.5455 4.8827 2.8016c.0139.008.0255.0195.0336.0333.0081.0138.0125.0295.0127.0455.0003.016-.0036.0318-.0113.0458-.0077.014-.019.0258-.0326.0342-3.9283 2.304-7.8464 4.5763-11.7542 6.817-.979.5617-1.4198 1.2231-1.1757 2.33.1612.7348.8106 1.1401 1.434 1.4838 3.2126 1.7682 6.3966 3.5854 9.5523 5.4516 3.8327 2.2637 7.7532 4.4088 11.5622 6.6724 6.0111 3.5744 12.0561 7.0895 18.1351 10.5454 1.5217.8659 3.0363 1.7445 4.5438 2.6357 2.0653 1.2199 3.3271 1.9002 3.7854 2.0409 1.6655.5119 3.3547.2694 5.0676-.7277 20.868-12.1501 36.1848-21.0497 45.9508-26.6989.922-.5333 1.637-1.3843 1.282-2.4888-.247-.7727-1.086-1.2681-1.773-1.6758-3.51-2.0811-7.09-4.148-10.74-6.2007-.158-.0885-.176-.1999-.054-.3342.079-.0869.208-.1896.388-.3081 1.437-.9387 2.894-1.8457 4.371-2.7211.07-.0411.14-.0403.211.0024 3.373 2.0834 7.151 4.1053 10.342 6.1058 2.967 1.8607 4.107 5.3355 2.562 8.4975-1.14 2.3324-3.162 3.1572-5.319 4.3898-8.111 4.6315-16.1898 9.3191-24.2361 14.0629-6.9228 4.08-13.8741 8.1127-20.8538 12.0979-3.2876 1.8773-6.0892 2.7943-9.5949.8035-12.5894-7.1551-25.1053-14.4358-37.5477-21.8422-3.6929-2.1972-7.5541-4.2025-11.3086-6.3357-1.62366-.9221-2.98183-2.3798-3.50566-4.1646-.63761-2.1712.04266-4.6482 1.5952-6.2813.45035-.474 1.30366-1.0698 2.55986-1.7872 3.0846-1.7587 6.1256-3.5356 9.1233-5.3307.0759-.046.1635-.0703.2536-.0703.0901 0 .1794.0243.2584.0703Z"/>
  <path stroke="#fff" d="M70.9072 5.00768c-3.1035-1.81006-5.6026-3.26761-9.1102-2.35908-.828.21333-2.1941.8778-4.0982 1.99341-2.6548 1.55385-5.3347 3.06613-8.0141 4.5782-3.0427 1.71709-6.0852 3.43399-9.0899 5.21109-8.8996 5.262-18.7576 10.9547-29.574 17.0779-3.52699 1.9958-4.97524 6.5704-2.13089 9.7893.54516.6178 1.55569 1.3479 3.03159 2.1901 2.0843 1.1899 5.2786 2.9763 9.5831 5.3592 2.8933 1.6008 9.7663 5.567 20.6191 11.8989 2.405 1.4032 8.1372 4.6623 17.1964 9.7774 2.3529 1.3273 4.7113 1.6789 7.0753 1.0548.8691-.2292 2.2873-.9118 4.2547-2.048 2.2059-1.2743 4.4115-2.5495 6.6172-3.8248l.0003-.0001.002-.0012c13.1746-7.6173 26.3514-15.2361 39.6314-22.6689.969-.5404 1.629-.9955 1.98-1.3653 1.604-1.6805 2.066-4.2618 1.379-6.4235-.493-1.5438-1.517-2.7685-3.072-3.6739-7.676-4.4672-15.378-8.8909-23.1053-13.2712-7.5944-4.3045-15.1667-8.64684-22.7168-13.02712-.1545-.08975-.3073-.1789-.4587-.2672ZM60.043 64.9966c1.7256 1.0097 3.4393 1.5644 5.3853 1.1472.7222-.1549 1.9191-.7253 3.591-1.7114 2.4372-1.4353 4.9198-2.8673 7.4153-4.3068 3.7808-2.1809 7.5914-4.3789 11.3194-6.632 1.6697-1.0097 3.8387-2.2152 6.1364-3.4923 2.2657-1.2593 4.6566-2.5882 6.8176-3.8675 4.317-2.5567 8.676-5.0416 13.079-7.4545.359-.1975.599-.4274.72-.6898.643-1.4079-.32-2.1996-1.403-2.8182-9.617-5.4912-19.2449-10.961-28.8841-16.4095-5.409-3.0577-10.7942-6.1541-16.1558-9.28915-2.8491-1.66394-4.961-1.77061-7.8291-.22044-3.9524 2.13999-7.8557 4.46219-11.6675 6.72999-2.5043 1.4899-4.9691 2.9563-7.3825 4.3321-8.5678 4.8828-17.1348 9.7664-25.701 14.6508-.0619.0353-.1256.0713-.1905.1079-.6527.3684-1.4269.8054-1.7697 1.409-.73 1.2847.2418 2.0195 1.3179 2.6168 11.8056 6.5578 19.2056 10.7327 22.2001 12.5246 4.5938 2.7483 9.2335 5.4189 13.873 8.0894 3.0471 1.754 6.0942 3.5079 9.1282 5.2838Z" clip-rule="evenodd"/>
  <path stroke="#fff" d="M69.2871 18.5651c-.0078.0229-.0076.0477.0006.0702s.0239.0412.0445.053l7.3763 4.3021c.0368.021.0785.032.1209.032.0424 0 .084-.011.1209-.032 2.9439-1.6877 6.7245-.0735 7.6702 3.0126.8035 2.6216-.3366 5.2858-2.8467 6.4069-3.6479 1.626-7.5968-.9315-7.6726-4.9326-.0008-.0364-.0094-.0722-.0254-.1049-.0159-.0328-.0388-.0617-.0671-.0847-.3524-.2876-.7269-.5491-1.1235-.7845-2.3276-1.389-4.6702-2.7504-7.0279-4.084-.0695-.0396-.1422-.0443-.2181-.0143-.3816.1541-.7158.3342-1.1258.3508-6.6842.2939-7.995-9.4171-1.4838-10.8108 1.4774-.3177 2.8704.0308 4.1788 1.0453 1.6023 1.242 2.7969 3.5127 2.0787 5.5749ZM53.8329 28.7644c-.0254.0562-.029.1198-.0102.1784.0189.0587.0588.1083.1121.1392l8.1798 4.7904c.0632.0363.1296.0442.1991.0237 2.078-.5894 3.8873-.1525 5.428 1.3108 2.6903 2.5575 2.0953 6.5799-1.0998 8.3765-2.0811 1.1694-4.118.945-6.1106-.6731-1.4712-1.1962-2.0464-2.8214-1.7256-4.8757.0058-.0376.0019-.0761-.0113-.1118-.0133-.0357-.0355-.0674-.0645-.092-.3303-.2876-.7901-.6021-1.3795-.9434-2.4667-1.4317-4.9318-2.8649-7.3953-4.2997-.0711-.0411-.1446-.0482-.2205-.0213-1.2088.4361-2.3402.2915-3.3942-.4338-.0434-.0301-.0949-.0464-.1478-.0469-.0528-.0004-.1046.0151-.1485.0445-2.8396 1.9342-6.0276 3.5104-9.0403 5.1696-.0711.038-.1058.0972-.1043.1778l.0119 1.4625c.0008.0705.0202.1397.0564.2004.0362.0608.0879.111.1498.1456l8.8459 4.9895c.0674.0381.1428.0597.2199.063.077.0033.1536-.0118.2234-.0441 4.7405-2.2162 9.5878 3.3137 6.6581 7.7603-.5657.8581-1.3455 1.5012-2.3395 1.9295-2.8822 1.2372-5.9304-.0806-7.1464-2.9629-.3034-.7206-.192-1.4198-.2299-2.2138-.0047-.0949-.0482-.166-.1304-.2134l-9.0592-5.217c-.0758-.0442-.1509-.0426-.2252.0048-1.3605.8691-2.7535 1.0674-4.1788.5949-6.4448-2.138-3.8683-11.4153 2.6879-10.2799.2244.0395.4496.079.6755.1185.0838.0142.1628 0 .2371-.0427l9.7418-5.755c.0533-.0313.098-.0752.1302-.1277.0323-.0525.051-.112.0547-.1733.1723-2.7891 1.4396-4.5218 3.802-5.1981 3.8327-1.0974 7.2696 1.9437 6.843 5.8333-.019.1738-.0506.3113-.0948.4124Zm39.752 14.7124-8.6705 4.9373c-.0344.0189-.0623.0476-.0805.0826-.0181.035-.0256.0747-.0214.1141.4337 4.5581-4.8947 7.4451-8.5117 4.7595-3.0174-2.2399-2.842-6.779.384-8.6989 1.5944-.9465 3.3247-1.0658 5.1909-.3579.0312.0119.0646.0167.0978.0143.0332-.0025.0653-.0122.0942-.0285l9.1137-5.2976c.0309-.0185.0571-.0438.0764-.0738.0194-.03.0314-.064.035-.0993.422-4.084 4.6766-6.4756 8.2984-4.2688 2.3918 1.4577 3.3608 4.7927 1.7258 7.2388-1.4366 2.1475-4.8048 3.1975-7.0779 1.8654-.1359-.079-.2773-.1469-.4243-.2038-.0369-.0148-.0768-.021-.1166-.0181-.0398.0028-.0786.0147-.1133.0347ZM69.3914 57.9592c0 1.4138-.5616 2.7697-1.5614 3.7694-.9997.9997-2.3556 1.5613-3.7694 1.5613-.7 0-1.3932-.1378-2.04-.4057-.6467-.2679-1.2344-.6606-1.7294-1.1556-.495-.495-.8877-1.0827-1.1556-1.7294-.2679-.6468-.4058-1.34-.4058-2.04 0-.7001.1379-1.3933.4058-2.04.2679-.6468.6606-1.2344 1.1556-1.7294.495-.4951 1.0827-.8877 1.7294-1.1556.6468-.2679 1.34-.4058 2.04-.4058 1.4138 0 2.7697.5616 3.7694 1.5614.9998.9997 1.5614 2.3556 1.5614 3.7694Z"/>
  <style>
      path { fill: #000; stroke: #000; }
      @media (prefers-color-scheme: dark) {
          path { fill: #FFF; stroke: #FFF }
      }
  </style>
</svg>
