<svg class="flex-1 h-fill w-fill" viewBox="0 0 479 295" fill="none" xmlns="http://www.w3.org/2000/svg">
<path fill-rule="evenodd" clip-rule="evenodd" d="M268.955 11.7427C255.861 4.10627 245.318 -2.04298 230.52 1.79002C227.027 2.69002 221.263 5.49336 213.23 10.2C202.029 16.7556 190.723 23.1357 179.419 29.515C166.582 36.7591 153.747 44.0026 141.07 51.5C103.523 73.7 61.9333 97.7167 16.2999 123.55C1.41994 131.97 -4.69005 151.27 7.30995 164.85C9.60995 167.457 13.8733 170.537 20.1 174.09C28.8933 179.11 42.37 186.647 60.53 196.7C72.7366 203.453 101.733 220.187 147.52 246.9C157.667 252.82 181.85 266.57 220.07 288.15C229.997 293.75 239.947 295.233 249.92 292.6C253.587 291.633 259.57 288.753 267.87 283.96C277.177 278.584 286.482 273.204 295.787 267.824L295.789 267.823L295.797 267.818C351.379 235.681 406.973 203.538 463 172.18C467.087 169.9 469.87 167.98 471.35 166.42C478.12 159.33 480.07 148.44 477.17 139.32C475.09 132.807 470.77 127.64 464.21 123.82C431.823 104.973 399.33 86.31 366.73 67.83C334.69 49.67 302.743 31.35 270.89 12.87C270.238 12.4914 269.593 12.1153 268.955 11.7427ZM223.12 264.83C230.4 269.09 237.63 271.43 245.84 269.67C248.887 269.017 253.937 266.61 260.99 262.45C271.272 256.394 281.746 250.353 292.275 244.28C308.225 235.079 324.302 225.806 340.03 216.3C347.074 212.04 356.225 206.954 365.919 201.566C375.477 196.253 385.564 190.647 394.68 185.25C412.893 174.463 431.287 163.98 449.86 153.8C451.373 152.967 452.387 151.997 452.9 150.89C455.61 144.95 451.55 141.61 446.98 139C406.407 115.833 365.787 92.7567 325.12 69.77C302.3 56.87 279.58 43.8067 256.96 30.58C244.94 23.56 236.03 23.11 223.93 29.65C207.255 38.6785 190.787 48.4756 174.706 58.0432C164.14 64.3288 153.742 70.5154 143.56 76.32C107.413 96.92 71.2699 117.523 35.1299 138.13C34.8686 138.279 34.5998 138.431 34.326 138.585C31.5724 140.14 28.3061 141.983 26.8599 144.53C23.7799 149.95 27.88 153.05 32.42 155.57C82.2266 183.237 113.447 200.85 126.08 208.41C145.461 220.005 165.035 231.272 184.609 242.538C197.464 249.938 210.32 257.338 223.12 264.83Z" fill="white"/>
<path d="M295.789 267.823L295.787 267.824C286.482 273.204 277.177 278.584 267.87 283.96C259.57 288.753 253.587 291.633 249.92 292.6C239.947 295.233 229.997 293.75 220.07 288.15C181.85 266.57 157.667 252.82 147.52 246.9C101.733 220.187 72.7366 203.453 60.53 196.7C42.37 186.647 28.8933 179.11 20.1 174.09C13.8733 170.537 9.60995 167.457 7.30995 164.85C-4.69005 151.27 1.41994 131.97 16.2999 123.55C61.9333 97.7167 103.523 73.7 141.07 51.5C153.747 44.0026 166.582 36.7591 179.419 29.515C190.723 23.1357 202.029 16.7556 213.23 10.2C221.263 5.49336 227.027 2.69002 230.52 1.79002C245.318 -2.04298 255.861 4.10627 268.955 11.7427C269.593 12.1153 270.238 12.4914 270.89 12.87C302.743 31.35 334.69 49.67 366.73 67.83C399.33 86.31 431.823 104.973 464.21 123.82C470.77 127.64 475.09 132.807 477.17 139.32C480.07 148.44 478.12 159.33 471.35 166.42C469.87 167.98 467.087 169.9 463 172.18C406.973 203.538 351.379 235.681 295.797 267.818M295.789 267.823L295.797 267.818M295.789 267.823C295.791 267.821 295.794 267.82 295.797 267.818M245.84 269.67C237.63 271.43 230.4 269.09 223.12 264.83C210.32 257.338 197.464 249.938 184.609 242.538C165.035 231.272 145.461 220.005 126.08 208.41C113.447 200.85 82.2266 183.237 32.42 155.57C27.88 153.05 23.7799 149.95 26.8599 144.53C28.3061 141.983 31.5724 140.14 34.326 138.585C34.5998 138.431 34.8686 138.279 35.1299 138.13C71.2699 117.523 107.413 96.92 143.56 76.32C153.742 70.5154 164.14 64.3288 174.706 58.0432C190.787 48.4756 207.255 38.6785 223.93 29.65C236.03 23.11 244.94 23.56 256.96 30.58C279.58 43.8067 302.3 56.87 325.12 69.77C365.787 92.7567 406.407 115.833 446.98 139C451.55 141.61 455.61 144.95 452.9 150.89C452.387 151.997 451.373 152.967 449.86 153.8C431.287 163.98 412.893 174.463 394.68 185.25C385.564 190.647 375.477 196.253 365.919 201.566C356.225 206.954 347.074 212.04 340.03 216.3C324.302 225.806 308.225 235.079 292.275 244.28C281.746 250.353 271.272 256.394 260.99 262.45C253.937 266.61 248.887 269.017 245.84 269.67Z" stroke="white"/>
<path d="M262.12 68.94C262.087 69.0367 262.088 69.1414 262.122 69.2363C262.157 69.3312 262.223 69.4103 262.31 69.46L293.43 87.61C293.585 87.6986 293.761 87.7452 293.94 87.7452C294.119 87.7452 294.295 87.6986 294.45 87.61C306.87 80.49 322.82 87.3 326.81 100.32C330.2 111.38 325.39 122.62 314.8 127.35C299.41 134.21 282.75 123.42 282.43 106.54C282.427 106.386 282.39 106.235 282.323 106.097C282.256 105.959 282.159 105.837 282.04 105.74C280.553 104.527 278.973 103.423 277.3 102.43C267.48 96.57 257.597 90.8267 247.65 85.2C247.357 85.0333 247.05 85.0134 246.73 85.14C245.12 85.79 243.71 86.55 241.98 86.62C213.78 87.86 208.25 46.89 235.72 41.01C241.953 39.67 247.83 41.14 253.35 45.42C260.11 50.66 265.15 60.24 262.12 68.94Z" fill="white" stroke="white"/>
<path d="M196.92 111.97C196.813 112.207 196.798 112.475 196.877 112.723C196.957 112.97 197.125 113.179 197.35 113.31L231.86 133.52C232.127 133.673 232.407 133.707 232.7 133.62C241.467 131.133 249.1 132.977 255.6 139.15C266.95 149.94 264.44 166.91 250.96 174.49C242.18 179.423 233.587 178.477 225.18 171.65C218.973 166.603 216.547 159.747 217.9 151.08C217.925 150.921 217.908 150.759 217.852 150.608C217.796 150.458 217.702 150.324 217.58 150.22C216.187 149.007 214.247 147.68 211.76 146.24C201.353 140.2 190.953 134.153 180.56 128.1C180.26 127.927 179.95 127.897 179.63 128.01C174.53 129.85 169.757 129.24 165.31 126.18C165.127 126.053 164.909 125.984 164.686 125.982C164.464 125.981 164.245 126.046 164.06 126.17C152.08 134.33 138.63 140.98 125.92 147.98C125.62 148.14 125.473 148.39 125.48 148.73L125.53 154.9C125.533 155.198 125.615 155.489 125.768 155.746C125.921 156.002 126.139 156.214 126.4 156.36L163.72 177.41C164.004 177.571 164.322 177.662 164.647 177.676C164.973 177.69 165.296 177.626 165.59 177.49C185.59 168.14 206.04 191.47 193.68 210.23C191.293 213.85 188.003 216.563 183.81 218.37C171.65 223.59 158.79 218.03 153.66 205.87C152.38 202.83 152.85 199.88 152.69 196.53C152.67 196.13 152.487 195.83 152.14 195.63L113.92 173.62C113.6 173.433 113.283 173.44 112.97 173.64C107.23 177.307 101.353 178.143 95.3399 176.15C68.1499 167.13 79.0199 127.99 106.68 132.78C107.627 132.947 108.577 133.113 109.53 133.28C109.883 133.34 110.217 133.28 110.53 133.1L151.63 108.82C151.854 108.688 152.043 108.503 152.179 108.281C152.315 108.06 152.394 107.809 152.41 107.55C153.137 95.7833 158.483 88.4733 168.45 85.62C184.62 80.99 199.12 93.82 197.32 110.23C197.24 110.963 197.107 111.543 196.92 111.97Z" fill="white" stroke="white"/>
<path d="M364.63 174.04L328.05 194.87C327.905 194.95 327.787 195.071 327.71 195.219C327.634 195.366 327.602 195.534 327.62 195.7C329.45 214.93 306.97 227.11 291.71 215.78C278.98 206.33 279.72 187.18 293.33 179.08C300.057 175.087 307.357 174.583 315.23 177.57C315.362 177.62 315.502 177.641 315.642 177.63C315.782 177.62 315.918 177.579 316.04 177.51L354.49 155.16C354.62 155.082 354.731 154.975 354.812 154.849C354.894 154.722 354.944 154.579 354.96 154.43C356.74 137.2 374.69 127.11 389.97 136.42C400.06 142.57 404.15 156.64 397.25 166.96C391.19 176.02 376.98 180.45 367.39 174.83C366.817 174.497 366.22 174.21 365.6 173.97C365.444 173.908 365.276 173.882 365.108 173.894C364.94 173.906 364.776 173.956 364.63 174.04Z" fill="white" stroke="white"/>
<path d="M262.56 235.14C262.56 241.105 260.19 246.825 255.973 251.043C251.755 255.261 246.035 257.63 240.07 257.63C237.116 257.63 234.192 257.048 231.463 255.918C228.735 254.788 226.255 253.131 224.167 251.043C222.079 248.954 220.422 246.475 219.292 243.747C218.162 241.018 217.58 238.093 217.58 235.14C217.58 232.187 218.162 229.262 219.292 226.533C220.422 223.805 222.079 221.326 224.167 219.237C226.255 217.149 228.735 215.492 231.463 214.362C234.192 213.232 237.116 212.65 240.07 212.65C246.035 212.65 251.755 215.02 255.973 219.237C260.19 223.455 262.56 229.175 262.56 235.14Z" fill="white" stroke="white"/>
</svg>
