<svg class="flex-1 h-fill w-fill" viewBox="0 0 480 201" fill="none" xmlns="http://www.w3.org/2000/svg">
<path d="M124.6 58.83C124.6 64.8238 122.219 70.5723 117.981 74.8106C113.742 79.0489 107.994 81.43 102 81.43C96.006 81.43 90.2576 79.0489 86.0193 74.8106C81.781 70.5723 79.3999 64.8238 79.3999 58.83C79.3999 52.8361 81.781 47.0877 86.0193 42.8494C90.2576 38.611 96.006 36.23 102 36.23C107.994 36.23 113.742 38.611 117.981 42.8494C122.219 47.0877 124.6 52.8361 124.6 58.83Z" fill="white" stroke="white"/>
<path d="M355.06 57.04C356.17 40.81 374.15 31.89 387.78 39.05C401.99 46.52 405.74 66.18 392.15 76.43C384.42 82.26 373.72 83.18 365.56 77.17C365.347 77.0167 365.123 77.0033 364.89 77.13L263.18 134.44C262.969 134.56 262.796 134.736 262.683 134.949C262.569 135.162 262.52 135.402 262.54 135.64C263.52 147.827 258.34 156.117 247 160.51C243.547 161.85 239.85 162.127 235.91 161.34C223.45 158.86 215.94 147.65 218.2 135.09C220.74 120.95 235.03 113 248.38 117.93C248.693 118.05 248.993 118.027 249.28 117.86L354.55 57.85C354.695 57.767 354.817 57.6497 354.906 57.5085C354.995 57.3673 355.048 57.2064 355.06 57.04Z" fill="white" stroke="white"/>
<path d="M59.9899 2.29997L80.5899 14.12C80.6484 14.1537 80.6972 14.202 80.7315 14.2602C80.7657 14.3185 80.7842 14.3846 80.7852 14.4521C80.7863 14.5197 80.7697 14.5863 80.7372 14.6455C80.7047 14.7048 80.6574 14.7545 80.5999 14.79C64.0266 24.51 47.4966 34.0966 31.0099 43.55C26.8799 45.92 25.0199 48.71 26.0499 53.38C26.7299 56.48 29.4699 58.19 32.0999 59.64C45.6532 67.1 59.0866 74.7667 72.3999 82.64C88.5699 92.19 105.11 101.24 121.18 110.79C146.54 125.87 172.043 140.7 197.69 155.28C204.11 158.933 210.5 162.64 216.86 166.4C225.573 171.547 230.897 174.417 232.83 175.01C239.857 177.17 246.983 176.147 254.21 171.94C342.25 120.68 406.87 83.1333 448.07 59.3C451.96 57.05 454.98 53.46 453.48 48.8C452.44 45.54 448.9 43.45 446 41.73C431.193 32.95 416.09 24.23 400.69 15.57C400.023 15.1967 399.947 14.7266 400.46 14.16C400.793 13.7933 401.34 13.36 402.1 12.86C408.16 8.89996 414.307 5.07332 420.54 1.37998C420.833 1.20665 421.13 1.20999 421.43 1.38999C435.66 10.18 451.6 18.71 465.06 27.15C477.58 35 482.39 49.66 475.87 63C471.06 72.84 462.53 76.32 453.43 81.52C419.21 101.06 385.127 120.837 351.18 140.85C321.973 158.063 292.647 175.077 263.2 191.89C249.33 199.81 237.51 203.68 222.72 195.28C169.607 165.093 116.803 134.377 64.3099 103.13C48.7299 93.86 32.4399 85.4 16.5999 76.4C9.74991 72.51 4.0199 66.36 1.8099 58.83C-0.880095 49.67 1.98992 39.22 8.53992 32.33C10.4399 30.33 14.0399 27.8167 19.3399 24.79C32.3532 17.37 45.1832 9.8733 57.8299 2.29997C58.1503 2.10599 58.52 2.00364 58.9001 2.00364C59.2802 2.00364 59.6567 2.10599 59.9899 2.29997Z" fill="white" stroke="white"/>
</svg>
