<svg  class="flex-1 h-fill w-fill" viewBox="0 0 480 199" fill="none" xmlns="http://www.w3.org/2000/svg">
<path d="M113.39 78.33C103.76 86.35 87.8398 80.4 82.6998 70.94C75.2898 57.32 81.5998 41.3899 97.2298 37.4199C111.25 33.8699 124.37 45 125.7 59.01C125.766 59.67 126.27 60.26 127.21 60.78C158.13 77.74 192.15 97.9899 228.09 117.61C228.383 117.77 228.683 117.78 228.99 117.64C235.103 114.953 241.043 114.593 246.81 116.56C260.02 121.08 267.65 136.61 259.3 149.02C248.71 164.77 224.75 163.46 218.26 144.68C217.55 142.6 217.49 139.83 217.12 137.41C217.095 137.252 217.037 137.101 216.951 136.967C216.865 136.833 216.752 136.718 216.62 136.63C213.866 134.83 211.086 133.117 208.28 131.49C177.073 113.477 145.713 95.7333 114.2 78.26C113.913 78.1 113.643 78.1233 113.39 78.33Z" fill="white" stroke="white"/>
<path d="M400.742 61.6669C400.196 67.5533 397.28 72.9767 392.634 76.7438C387.989 80.511 381.995 82.3134 375.971 81.7546C372.988 81.478 370.088 80.6299 367.436 79.2588C364.784 77.8878 362.432 76.0207 360.514 73.7641C358.596 71.5075 357.15 68.9055 356.258 66.1069C355.367 63.3082 355.047 60.3676 355.317 57.4529C355.864 51.5665 358.78 46.1432 363.426 42.376C368.071 38.6089 374.065 36.8064 380.089 37.3652C383.072 37.6419 385.972 38.49 388.624 39.861C391.276 41.232 393.628 43.0991 395.546 45.3558C397.464 47.6124 398.91 50.2143 399.802 53.013C400.693 55.8117 401.013 58.7523 400.742 61.6669Z" fill="white" stroke="white"/>
<path d="M213.97 163.41C228.04 171.63 239.11 179.04 254.97 169.7C299.443 143.54 344.193 117.847 389.22 92.62C394.567 89.62 400.32 86.2533 406.48 82.52C420.52 74.0267 434.693 65.7633 449 57.73C453.21 55.37 455.76 49.61 452.72 45.36C451.14 43.14 447.69 41.41 445.12 39.93C430.913 31.79 416.54 23.6333 402 15.46C401.895 15.4004 401.807 15.3146 401.745 15.211C401.683 15.1073 401.648 14.9893 401.645 14.8685C401.642 14.7477 401.671 14.6281 401.728 14.5215C401.784 14.4148 401.868 14.3248 401.97 14.26L421.97 1.73001C422.317 1.51667 422.667 1.51333 423.02 1.72C436.373 9.4 449.69 17.0633 462.97 24.71C483.21 36.36 484.43 62.1 463.53 74.28C388.91 117.773 323.46 155.617 267.18 187.81C258.88 192.557 252.883 195.417 249.19 196.39C240.103 198.763 231.113 197.747 222.22 193.34C208.9 186.73 193 176.77 180.52 169.57C128.207 139.417 75.85 109.343 23.45 79.35C15.4633 74.7766 10.2633 71.1933 7.84998 68.6C-1.08002 58.99 -1.72003 40.44 8.77997 30.41C10.4266 28.83 13.4433 26.8233 17.83 24.39C30.8366 17.1767 43.5866 9.53332 56.08 1.45999C56.38 1.26665 56.69 1.26 57.01 1.44L78.75 13.97C78.7916 13.9935 78.8262 14.0277 78.8503 14.069C78.8743 14.1103 78.887 14.1572 78.887 14.205C78.887 14.2528 78.8743 14.2997 78.8503 14.341C78.8262 14.3823 78.7916 14.4165 78.75 14.44C64.0633 22.72 49.3766 31.13 34.69 39.67C30.6366 42.0233 28.3766 43.4433 27.91 43.93C24.62 47.32 25.03 54.58 29.51 57.3C44.18 66.19 59.9 74.6 74.08 82.81C120.64 109.78 167.52 136.25 213.97 163.41Z" fill="white" stroke="white"/>
</svg>
